<svg xmlns="http://www.w3.org/2000/svg"
    xmlns:xlink="http://www.w3.org/1999/xlink" width="700px" height="700px" version="1.1" viewBox="0 0 700 560">
    <g>
        <path fill="currentColor" d="m388.92 254.24c3.2891 4.9961 5.6016 10.57 6.8125 16.43h18.945c-1.5234-10.824-5.7969-21.074-12.414-29.773z"></path>
        <path fill="currentColor" d="m388.92 305.76 13.348 13.348-0.003906-0.003906c6.6172-8.6992 10.891-18.949 12.414-29.773h-18.945c-1.2109 5.8594-3.5234 11.434-6.8125 16.43z"></path>
        <path fill="currentColor" d="m350 326.67c-9.1328 0.015625-18.066-2.6797-25.668-7.75l-13.344 13.348c11.223 8.5078 24.93 13.098 39.012 13.066 14.066 0.003907 27.754-4.5469 39.012-12.973l-13.441-13.441h0.003907c-7.5664 5.0664-16.469 7.7656-25.574 7.75z"></path>
        <path fill="currentColor" d="m304.27 289.33h-18.852c1.4922 10.801 5.6992 21.043 12.227 29.773l13.438-13.438c-3.2969-4.957-5.6094-10.504-6.8125-16.336z"></path>
        <path fill="currentColor" d="m311.08 254.33-13.344-13.344c-6.6094 8.6602-10.852 18.887-12.32 29.68h18.945c1.1367-5.8359 3.4219-11.391 6.7188-16.336z"></path>
        <path fill="currentColor" d="m350 233.33c9.1055-0.015625 18.008 2.6836 25.574 7.7461l13.438-13.438c-11.246-8.4531-24.941-13.008-39.012-12.973-14.094-0.007813-27.812 4.543-39.105 12.973l13.438 13.438c7.6133-5.0391 16.539-7.7344 25.668-7.7461z"></path>
        <path fill="currentColor" d="m369.69 260.21c-5.1797-5.2891-12.285-8.2539-19.691-8.2148-7.2734-0.007812-14.266 2.8008-19.508 7.8398-0.070313 0.14062-0.16406 0.26562-0.27734 0.375-0.1875 0.1875-0.375 0.27734-0.55859 0.46484h-0.003906c-4.9648 5.2812-7.7031 12.27-7.6523 19.516 0.054688 7.2461 2.8945 14.195 7.9336 19.402 0.09375 0 0.1875 0.09375 0.28125 0.1875 0.11328 0.10547 0.20703 0.23438 0.27734 0.375 5.2969 4.8594 12.227 7.5586 19.414 7.5586 7.1914 0 14.117-2.6992 19.414-7.5586l0.375-0.37109 0.375-0.375h-0.003906c4.9609-5.0742 7.8008-11.852 7.9336-18.949v-0.46484c-0.023438-7.3945-2.9766-14.477-8.2148-19.691z"></path>
        <path fill="currentColor" d="m602 0c-7.418 0.023438-14.527 2.9805-19.773 8.2266-5.2461 5.2461-8.2031 12.355-8.2266 19.773v126.79l-87.875 87.875h-10.965c-12.844-43.207-47.07-76.727-90.535-88.668-42.871-11.84-88.824-1.0039-121.89 28.746-17.922 16.094-31.035 36.832-37.895 59.922h-10.977l-87.863-87.867v-126.8c0-10.004-5.3359-19.246-14-24.25-8.6641-5-19.336-5-28 0-8.6641 5.0039-14 14.246-14 24.25v504c0 10.004 5.3359 19.246 14 24.25 8.6641 5 19.336 5 28 0 8.6641-5.0039 14-14.246 14-24.25v-126.8l87.863-87.867h10.883c8.5156 28.281 26.301 52.875 50.492 69.816l21.934 46.574v-0.003906c1.793 4.1797 4.7578 7.75 8.5312 10.285 3.7773 2.5352 8.2031 3.9219 12.75 3.9961h63.188c4.5234-0.0625 8.9336-1.4375 12.695-3.957 3.7578-2.5156 6.707-6.0703 8.4922-10.23l22.027-46.762-0.003907 0.003907c24.137-16.938 41.887-41.492 50.402-69.723h10.875l87.871 87.875v126.79c0 10.004 5.3359 19.246 14 24.25 8.6641 5 19.336 5 28 0 8.6641-5.0039 14-14.246 14-24.25v-504c-0.023438-7.418-2.9805-14.527-8.2266-19.773-5.2461-5.2461-12.355-8.2031-19.773-8.2266zm-28 181.19v61.48h-61.477zm-163.33 156.77-0.1875 0.1875c-0.37891 0.45703-0.78516 0.89453-1.2148 1.3047-0.16016 0.21094-0.35156 0.39844-0.55859 0.55859-15.562 15.262-36.453 23.863-58.246 23.988-21.797 0.12109-42.785-8.2461-58.516-23.332-0.42578-0.35156-0.82812-0.72656-1.2109-1.1211l-0.09375-0.09375c-0.42969-0.41016-0.83594-0.84766-1.2148-1.3047 0-0.09375 0-0.09375-0.09375-0.09375 0-0.09375-0.09375-0.09375-0.09375-0.1875-20.477-21.465-28.105-52.141-20.062-80.695 8.0469-28.555 30.566-50.742 59.238-58.359 28.668-7.6172 59.23 0.46875 80.387 21.266 0.1875 0.09375 0.28125 0.28125 0.46484 0.46484v0.003906c0.42969 0.41016 0.83594 0.84766 1.2148 1.3047 0 0.054688 0.039062 0.097657 0.09375 0.09375 7.1484 7.5625 12.93 16.312 17.078 25.855 4.1797 10.223 6.3359 21.156 6.3477 32.199v0.1875c0.003906 21.555-8.3594 42.266-23.332 57.773zm-223.2-95.293h-61.469v-61.469zm-61.469 136.13v-61.469h61.469zm0-80.133v-37.336h94.734c-0.94141 6.1797-1.4102 12.418-1.4023 18.668 0.007813 6.2461 0.44531 12.48 1.3086 18.668zm188.07 127.12-11.293-23.984c12.141 4.793 24.957 7.6602 37.988 8.4922l0.089843 19.039h-22.398c-2.0234-0.23438-3.7344-1.6133-4.3867-3.5469zm71.867 0.09375c-0.62891 1.8945-2.3086 3.2461-4.293 3.4531h-22.121l-0.09375-19.039c12.992-0.88672 25.77-3.75 37.895-8.4922zm93.426-164.55h94.641v37.332l-94.641 0.003907c1.7422-12.383 1.7422-24.953 0-37.336zm33.164 56h61.477v61.477z"></path>
    </g>
</svg>