<svg xmlns="http://www.w3.org/2000/svg" width="700" height="700" viewBox="0 0 700 700"><path fill="currentColor" d="m251.25 405.59-26.898-26.898-27.152 27.234c-3.309-3.055-8.656-2.969-11.879.34l-79.25 79.25 38.352 38.438 79.25-79.25c3.394-3.395 3.394-8.91 0-12.305l.426.34zM87.488 515.55c-.68.762-.68 1.953 0 2.629l24.266 24.266c.68.762 1.867.762 2.629 0l12.305-12.305-26.898-26.898zM295.96 304.45l-5.602-12.305-20.46 20.461-23.239-16.641c-6.023-3.734-13.828-2.887-18.836 2.121-5.007 5.09-5.941 12.898-2.12 18.922l16.894 22.898-16.555 16.555 47.516 47.43 46.668-46.75-5.601-12.219zM308.77 291.64l2.629 5.77 15.953 34.62 20.023-19.94-29.527-29.527zM603.71 55.758c6.277-6.195 12.98-22.824 6.957-28.934l-7.55-7.465c-6.024-6.11-22.739.766-28.935 6.871L359.602 240.9l29.527 29.527zM513.48 396.86c-3.488-3.488-9.2-3.488-12.691 0l-26.965 26.965c-3.488 3.488-3.488 9.2 0 12.691l94.508 94.504 22.586 1.207 18.273-18.273-1.207-22.59zM453.36 335.59l-40.812 40.812c-1.613-.766-3.055-1.953-4.328-3.48l-15.102-19.349c-4.242-5.43-3.734-13.066 1.02-17.902l.34-.425-64.657-64.656L101.411 42.1c-4.836-4.836-4.836-12.812 0-17.648s12.727-4.836 17.734 0l257.94 257.94 35.125 35.129.426-.34c4.836-4.922 12.473-5.262 17.902-1.02l19.344 15.102c1.531 1.278 2.719 2.72 3.484 4.332zM502.65 353.58l-17.734-17.734-27.602 16.773-1.5-1.5-27.746 27.746 33.43 33.43c.086-.168.168-.254.34-.426l26.98-26.98c.168-.168.254-.254.426-.34l-3.383-3.382z"/></svg>